G04 #@! TF.GenerationSoftware,KiCad,Pcbnew,(5.1.5)-3*
G04 #@! TF.CreationDate,2021-01-10T18:58:55+00:00*
G04 #@! TF.ProjectId,Ebike_Controller,4562696b-655f-4436-9f6e-74726f6c6c65,rev?*
G04 #@! TF.SameCoordinates,Original*
G04 #@! TF.FileFunction,Legend,Bot*
G04 #@! TF.FilePolarity,Positive*
%FSLAX46Y46*%
G04 Gerber Fmt 4.6, Leading zero omitted, Abs format (unit mm)*
G04 Created by KiCad (PCBNEW (5.1.5)-3) date 2021-01-10 18:58:55*
%MOMM*%
%LPD*%
G04 APERTURE LIST*
%ADD10C,0.153000*%
%ADD11C,0.050000*%
%ADD12C,0.120000*%
%ADD13C,0.150000*%
G04 APERTURE END LIST*
D10*
X145019047Y-76852380D02*
X145019047Y-77566666D01*
X145066666Y-77709523D01*
X145161904Y-77804761D01*
X145304761Y-77852380D01*
X145400000Y-77852380D01*
X144066666Y-77852380D02*
X144542857Y-77852380D01*
X144542857Y-76852380D01*
X143161904Y-77757142D02*
X143209523Y-77804761D01*
X143352380Y-77852380D01*
X143447619Y-77852380D01*
X143590476Y-77804761D01*
X143685714Y-77709523D01*
X143733333Y-77614285D01*
X143780952Y-77423809D01*
X143780952Y-77280952D01*
X143733333Y-77090476D01*
X143685714Y-76995238D01*
X143590476Y-76900000D01*
X143447619Y-76852380D01*
X143352380Y-76852380D01*
X143209523Y-76900000D01*
X143161904Y-76947619D01*
X142447619Y-76852380D02*
X142447619Y-77566666D01*
X142495238Y-77709523D01*
X142590476Y-77804761D01*
X142733333Y-77852380D01*
X142828571Y-77852380D01*
X141495238Y-77852380D02*
X141971428Y-77852380D01*
X141971428Y-76852380D01*
X140590476Y-77757142D02*
X140638095Y-77804761D01*
X140780952Y-77852380D01*
X140876190Y-77852380D01*
X141019047Y-77804761D01*
X141114285Y-77709523D01*
X141161904Y-77614285D01*
X141209523Y-77423809D01*
X141209523Y-77280952D01*
X141161904Y-77090476D01*
X141114285Y-76995238D01*
X141019047Y-76900000D01*
X140876190Y-76852380D01*
X140780952Y-76852380D01*
X140638095Y-76900000D01*
X140590476Y-76947619D01*
X139876190Y-76852380D02*
X139876190Y-77566666D01*
X139923809Y-77709523D01*
X140019047Y-77804761D01*
X140161904Y-77852380D01*
X140257142Y-77852380D01*
X138923809Y-77852380D02*
X139400000Y-77852380D01*
X139400000Y-76852380D01*
X138019047Y-77757142D02*
X138066666Y-77804761D01*
X138209523Y-77852380D01*
X138304761Y-77852380D01*
X138447619Y-77804761D01*
X138542857Y-77709523D01*
X138590476Y-77614285D01*
X138638095Y-77423809D01*
X138638095Y-77280952D01*
X138590476Y-77090476D01*
X138542857Y-76995238D01*
X138447619Y-76900000D01*
X138304761Y-76852380D01*
X138209523Y-76852380D01*
X138066666Y-76900000D01*
X138019047Y-76947619D01*
X137304761Y-76852380D02*
X137304761Y-77566666D01*
X137352380Y-77709523D01*
X137447619Y-77804761D01*
X137590476Y-77852380D01*
X137685714Y-77852380D01*
X136352380Y-77852380D02*
X136828571Y-77852380D01*
X136828571Y-76852380D01*
X135447619Y-77757142D02*
X135495238Y-77804761D01*
X135638095Y-77852380D01*
X135733333Y-77852380D01*
X135876190Y-77804761D01*
X135971428Y-77709523D01*
X136019047Y-77614285D01*
X136066666Y-77423809D01*
X136066666Y-77280952D01*
X136019047Y-77090476D01*
X135971428Y-76995238D01*
X135876190Y-76900000D01*
X135733333Y-76852380D01*
X135638095Y-76852380D01*
X135495238Y-76900000D01*
X135447619Y-76947619D01*
D11*
X102910000Y-61500000D02*
X102870000Y-78740000D01*
X100410000Y-59000000D02*
G75*
G02X102910000Y-61500000I0J-2500000D01*
G01*
X105410000Y-61500000D02*
G75*
G02X107910000Y-59000000I2500000J0D01*
G01*
X145500000Y-59000000D02*
G75*
G02X148000000Y-61500000I0J-2500000D01*
G01*
X148000000Y-76240000D02*
G75*
G02X145500000Y-78740000I-2500000J0D01*
G01*
X145500000Y-81280000D02*
G75*
G02X148000000Y-83780000I0J-2500000D01*
G01*
X148000000Y-156500000D02*
G75*
G02X145500000Y-159000000I-2500000J0D01*
G01*
X50500000Y-159000000D02*
G75*
G02X48000000Y-156500000I0J2500000D01*
G01*
X48000000Y-61500000D02*
G75*
G02X50500000Y-59000000I2500000J0D01*
G01*
X143510000Y-81280000D02*
X145500000Y-81280000D01*
X143510000Y-78740000D02*
X145500000Y-78740000D01*
X143510000Y-81280000D02*
G75*
G02X143510000Y-78740000I0J1270000D01*
G01*
X137160000Y-78740000D02*
G75*
G02X137160000Y-81280000I0J-1270000D01*
G01*
X109220000Y-78740000D02*
G75*
G02X109220000Y-81280000I0J-1270000D01*
G01*
X105410000Y-81280000D02*
X109220000Y-81280000D01*
X106680000Y-78740000D02*
X109220000Y-78740000D01*
X106680000Y-78740000D02*
G75*
G02X105410000Y-77470000I0J1270000D01*
G01*
X105410000Y-81280000D02*
G75*
G02X102870000Y-78740000I0J2540000D01*
G01*
X105410000Y-61500000D02*
X105410000Y-77470000D01*
X107910000Y-59000000D02*
X145500000Y-59000000D01*
X115570000Y-81280000D02*
X137160000Y-81280000D01*
X115570000Y-81280000D02*
G75*
G02X115570000Y-78740000I0J1270000D01*
G01*
X137160000Y-78740000D02*
X115570000Y-78740000D01*
X148000000Y-83780000D02*
X148000000Y-156500000D01*
X148000000Y-61500000D02*
X148000000Y-76240000D01*
X48000000Y-156500000D02*
X48000000Y-61500000D01*
X145500000Y-159000000D02*
X50500000Y-159000000D01*
X50500000Y-59000000D02*
X100410000Y-59000000D01*
D12*
X65300000Y-70450000D02*
X65300000Y-66550000D01*
X63300000Y-70450000D02*
X63300000Y-66550000D01*
X65300000Y-70450000D02*
X63300000Y-70450000D01*
X89962000Y-76212252D02*
X89962000Y-75689748D01*
X91382000Y-76212252D02*
X91382000Y-75689748D01*
X71166000Y-73799252D02*
X71166000Y-73276748D01*
X72586000Y-73799252D02*
X72586000Y-73276748D01*
X86025000Y-73917252D02*
X86025000Y-73394748D01*
X87445000Y-73917252D02*
X87445000Y-73394748D01*
X74341000Y-83182748D02*
X74341000Y-83705252D01*
X75761000Y-83182748D02*
X75761000Y-83705252D01*
X73153252Y-80589000D02*
X72630748Y-80589000D01*
X73153252Y-79169000D02*
X72630748Y-79169000D01*
X85286000Y-86992748D02*
X85286000Y-87515252D01*
X83866000Y-86992748D02*
X83866000Y-87515252D01*
X84704748Y-70025000D02*
X85227252Y-70025000D01*
X84704748Y-71445000D02*
X85227252Y-71445000D01*
X84695748Y-63929000D02*
X85218252Y-63929000D01*
X84695748Y-65349000D02*
X85218252Y-65349000D01*
X83381000Y-86992748D02*
X83381000Y-87515252D01*
X81961000Y-86992748D02*
X81961000Y-87515252D01*
X74618000Y-73276748D02*
X74618000Y-73799252D01*
X73198000Y-73276748D02*
X73198000Y-73799252D01*
X64627000Y-90058800D02*
X64627000Y-77458800D01*
X69727000Y-90058800D02*
X64627000Y-90058800D01*
X69727000Y-77458800D02*
X69727000Y-90058800D01*
X77862000Y-69273000D02*
X77862000Y-70673000D01*
X75542000Y-70673000D02*
X75542000Y-68773000D01*
X129960000Y-66260000D02*
X131775000Y-66260000D01*
X129960000Y-66015000D02*
X129960000Y-66260000D01*
X126100000Y-66015000D02*
X129960000Y-66015000D01*
X122240000Y-66015000D02*
X122240000Y-66260000D01*
X126100000Y-66015000D02*
X122240000Y-66015000D01*
X129960000Y-77785000D02*
X129960000Y-77540000D01*
X126100000Y-77785000D02*
X129960000Y-77785000D01*
X122240000Y-77785000D02*
X122240000Y-77540000D01*
X126100000Y-77785000D02*
X122240000Y-77785000D01*
X77627800Y-82347600D02*
X76312800Y-82347600D01*
X77627800Y-82647600D02*
X77627800Y-82347600D01*
X77927800Y-82647600D02*
X77627800Y-82647600D01*
X84847800Y-82647600D02*
X84847800Y-82347600D01*
X84547800Y-82647600D02*
X84847800Y-82647600D01*
X77627800Y-75427600D02*
X77627800Y-75727600D01*
X77927800Y-75427600D02*
X77627800Y-75427600D01*
X84847800Y-75427600D02*
X84847800Y-75727600D01*
X84547800Y-75427600D02*
X84847800Y-75427600D01*
X78532000Y-70243252D02*
X78532000Y-69720748D01*
X79952000Y-70243252D02*
X79952000Y-69720748D01*
X79952000Y-65901748D02*
X79952000Y-66424252D01*
X78532000Y-65901748D02*
X78532000Y-66424252D01*
X77725252Y-61310000D02*
X77202748Y-61310000D01*
X77725252Y-59890000D02*
X77202748Y-59890000D01*
X136911252Y-72960000D02*
X136388748Y-72960000D01*
X136911252Y-71540000D02*
X136388748Y-71540000D01*
X141490000Y-67061252D02*
X141490000Y-66538748D01*
X142910000Y-67061252D02*
X142910000Y-66538748D01*
X134636252Y-67510000D02*
X134113748Y-67510000D01*
X134636252Y-66090000D02*
X134113748Y-66090000D01*
X138661252Y-67510000D02*
X138138748Y-67510000D01*
X138661252Y-66090000D02*
X138138748Y-66090000D01*
X117088748Y-76440000D02*
X117611252Y-76440000D01*
X117088748Y-77860000D02*
X117611252Y-77860000D01*
X112038748Y-76440000D02*
X112561252Y-76440000D01*
X112038748Y-77860000D02*
X112561252Y-77860000D01*
X141010000Y-72938748D02*
X141010000Y-73461252D01*
X139590000Y-72938748D02*
X139590000Y-73461252D01*
X75761000Y-86992748D02*
X75761000Y-87515252D01*
X74341000Y-86992748D02*
X74341000Y-87515252D01*
X85771000Y-87515252D02*
X85771000Y-86992748D01*
X87191000Y-87515252D02*
X87191000Y-86992748D01*
X85227252Y-69413000D02*
X84704748Y-69413000D01*
X85227252Y-67993000D02*
X84704748Y-67993000D01*
X85209252Y-67381000D02*
X84686748Y-67381000D01*
X85209252Y-65961000D02*
X84686748Y-65961000D01*
X77666000Y-86992748D02*
X77666000Y-87515252D01*
X76246000Y-86992748D02*
X76246000Y-87515252D01*
X81476000Y-86992748D02*
X81476000Y-87515252D01*
X80056000Y-86992748D02*
X80056000Y-87515252D01*
X117080000Y-72750000D02*
X117080000Y-75700000D01*
X113980000Y-75150000D02*
X113980000Y-72750000D01*
X112030000Y-72750000D02*
X112030000Y-75700000D01*
X108930000Y-75150000D02*
X108930000Y-72750000D01*
X74720000Y-64940000D02*
X74720000Y-66400000D01*
X77880000Y-64940000D02*
X77880000Y-67100000D01*
X77880000Y-64940000D02*
X76950000Y-64940000D01*
X74720000Y-64940000D02*
X75650000Y-64940000D01*
X86837500Y-107335000D02*
X86837500Y-109885000D01*
X88537500Y-107335000D02*
X88537500Y-109885000D01*
X86837500Y-107335000D02*
X88537500Y-107335000D01*
X77211748Y-61890000D02*
X77734252Y-61890000D01*
X77211748Y-63310000D02*
X77734252Y-63310000D01*
X73198000Y-70026078D02*
X73198000Y-69508922D01*
X74618000Y-70026078D02*
X74618000Y-69508922D01*
X71166000Y-70026078D02*
X71166000Y-69508922D01*
X72586000Y-70026078D02*
X72586000Y-69508922D01*
X118290000Y-68561252D02*
X118290000Y-68038748D01*
X119710000Y-68561252D02*
X119710000Y-68038748D01*
X63823000Y-79749722D02*
X63823000Y-80266878D01*
X62403000Y-79749722D02*
X62403000Y-80266878D01*
X62403000Y-86947078D02*
X62403000Y-86429922D01*
X63823000Y-86947078D02*
X63823000Y-86429922D01*
X66800578Y-62555000D02*
X66283422Y-62555000D01*
X66800578Y-61135000D02*
X66283422Y-61135000D01*
X73144252Y-78557000D02*
X72621748Y-78557000D01*
X73144252Y-77137000D02*
X72621748Y-77137000D01*
X79571000Y-86992748D02*
X79571000Y-87515252D01*
X78151000Y-86992748D02*
X78151000Y-87515252D01*
X88057000Y-76212252D02*
X88057000Y-75689748D01*
X89477000Y-76212252D02*
X89477000Y-75689748D01*
D13*
X66752380Y-66985714D02*
X65752380Y-66985714D01*
X65752380Y-67223809D01*
X65800000Y-67366666D01*
X65895238Y-67461904D01*
X65990476Y-67509523D01*
X66180952Y-67557142D01*
X66323809Y-67557142D01*
X66514285Y-67509523D01*
X66609523Y-67461904D01*
X66704761Y-67366666D01*
X66752380Y-67223809D01*
X66752380Y-66985714D01*
X66752380Y-68509523D02*
X66752380Y-67938095D01*
X66752380Y-68223809D02*
X65752380Y-68223809D01*
X65895238Y-68128571D01*
X65990476Y-68033333D01*
X66038095Y-67938095D01*
X66752380Y-69461904D02*
X66752380Y-68890476D01*
X66752380Y-69176190D02*
X65752380Y-69176190D01*
X65895238Y-69080952D01*
X65990476Y-68985714D01*
X66038095Y-68890476D01*
X90752380Y-78633333D02*
X90276190Y-78300000D01*
X90752380Y-78061904D02*
X89752380Y-78061904D01*
X89752380Y-78442857D01*
X89800000Y-78538095D01*
X89847619Y-78585714D01*
X89942857Y-78633333D01*
X90085714Y-78633333D01*
X90180952Y-78585714D01*
X90228571Y-78538095D01*
X90276190Y-78442857D01*
X90276190Y-78061904D01*
X89847619Y-79014285D02*
X89800000Y-79061904D01*
X89752380Y-79157142D01*
X89752380Y-79395238D01*
X89800000Y-79490476D01*
X89847619Y-79538095D01*
X89942857Y-79585714D01*
X90038095Y-79585714D01*
X90180952Y-79538095D01*
X90752380Y-78966666D01*
X90752380Y-79585714D01*
X69457142Y-72757142D02*
X69504761Y-72709523D01*
X69552380Y-72566666D01*
X69552380Y-72471428D01*
X69504761Y-72328571D01*
X69409523Y-72233333D01*
X69314285Y-72185714D01*
X69123809Y-72138095D01*
X68980952Y-72138095D01*
X68790476Y-72185714D01*
X68695238Y-72233333D01*
X68600000Y-72328571D01*
X68552380Y-72471428D01*
X68552380Y-72566666D01*
X68600000Y-72709523D01*
X68647619Y-72757142D01*
X68552380Y-73090476D02*
X68552380Y-73709523D01*
X68933333Y-73376190D01*
X68933333Y-73519047D01*
X68980952Y-73614285D01*
X69028571Y-73661904D01*
X69123809Y-73709523D01*
X69361904Y-73709523D01*
X69457142Y-73661904D01*
X69504761Y-73614285D01*
X69552380Y-73519047D01*
X69552380Y-73233333D01*
X69504761Y-73138095D01*
X69457142Y-73090476D01*
X68647619Y-74090476D02*
X68600000Y-74138095D01*
X68552380Y-74233333D01*
X68552380Y-74471428D01*
X68600000Y-74566666D01*
X68647619Y-74614285D01*
X68742857Y-74661904D01*
X68838095Y-74661904D01*
X68980952Y-74614285D01*
X69552380Y-74042857D01*
X69552380Y-74661904D01*
X130404357Y-114494380D02*
X130737690Y-114018190D01*
X130975785Y-114494380D02*
X130975785Y-113494380D01*
X130594833Y-113494380D01*
X130499595Y-113542000D01*
X130451976Y-113589619D01*
X130404357Y-113684857D01*
X130404357Y-113827714D01*
X130451976Y-113922952D01*
X130499595Y-113970571D01*
X130594833Y-114018190D01*
X130975785Y-114018190D01*
X130023404Y-113589619D02*
X129975785Y-113542000D01*
X129880547Y-113494380D01*
X129642452Y-113494380D01*
X129547214Y-113542000D01*
X129499595Y-113589619D01*
X129451976Y-113684857D01*
X129451976Y-113780095D01*
X129499595Y-113922952D01*
X130071023Y-114494380D01*
X129451976Y-114494380D01*
X129118642Y-113494380D02*
X128451976Y-113494380D01*
X128880547Y-114494380D01*
X89942857Y-72857142D02*
X89990476Y-72904761D01*
X90133333Y-72952380D01*
X90228571Y-72952380D01*
X90371428Y-72904761D01*
X90466666Y-72809523D01*
X90514285Y-72714285D01*
X90561904Y-72523809D01*
X90561904Y-72380952D01*
X90514285Y-72190476D01*
X90466666Y-72095238D01*
X90371428Y-72000000D01*
X90228571Y-71952380D01*
X90133333Y-71952380D01*
X89990476Y-72000000D01*
X89942857Y-72047619D01*
X89609523Y-71952380D02*
X88990476Y-71952380D01*
X89323809Y-72333333D01*
X89180952Y-72333333D01*
X89085714Y-72380952D01*
X89038095Y-72428571D01*
X88990476Y-72523809D01*
X88990476Y-72761904D01*
X89038095Y-72857142D01*
X89085714Y-72904761D01*
X89180952Y-72952380D01*
X89466666Y-72952380D01*
X89561904Y-72904761D01*
X89609523Y-72857142D01*
X88133333Y-72285714D02*
X88133333Y-72952380D01*
X88371428Y-71904761D02*
X88609523Y-72619047D01*
X87990476Y-72619047D01*
X73757142Y-82957142D02*
X73804761Y-82909523D01*
X73852380Y-82766666D01*
X73852380Y-82671428D01*
X73804761Y-82528571D01*
X73709523Y-82433333D01*
X73614285Y-82385714D01*
X73423809Y-82338095D01*
X73280952Y-82338095D01*
X73090476Y-82385714D01*
X72995238Y-82433333D01*
X72900000Y-82528571D01*
X72852380Y-82671428D01*
X72852380Y-82766666D01*
X72900000Y-82909523D01*
X72947619Y-82957142D01*
X72852380Y-83290476D02*
X72852380Y-83909523D01*
X73233333Y-83576190D01*
X73233333Y-83719047D01*
X73280952Y-83814285D01*
X73328571Y-83861904D01*
X73423809Y-83909523D01*
X73661904Y-83909523D01*
X73757142Y-83861904D01*
X73804761Y-83814285D01*
X73852380Y-83719047D01*
X73852380Y-83433333D01*
X73804761Y-83338095D01*
X73757142Y-83290476D01*
X72852380Y-84242857D02*
X72852380Y-84861904D01*
X73233333Y-84528571D01*
X73233333Y-84671428D01*
X73280952Y-84766666D01*
X73328571Y-84814285D01*
X73423809Y-84861904D01*
X73661904Y-84861904D01*
X73757142Y-84814285D01*
X73804761Y-84766666D01*
X73852380Y-84671428D01*
X73852380Y-84385714D01*
X73804761Y-84290476D01*
X73757142Y-84242857D01*
X73066666Y-81957142D02*
X73114285Y-82004761D01*
X73257142Y-82052380D01*
X73352380Y-82052380D01*
X73495238Y-82004761D01*
X73590476Y-81909523D01*
X73638095Y-81814285D01*
X73685714Y-81623809D01*
X73685714Y-81480952D01*
X73638095Y-81290476D01*
X73590476Y-81195238D01*
X73495238Y-81100000D01*
X73352380Y-81052380D01*
X73257142Y-81052380D01*
X73114285Y-81100000D01*
X73066666Y-81147619D01*
X72161904Y-81052380D02*
X72638095Y-81052380D01*
X72685714Y-81528571D01*
X72638095Y-81480952D01*
X72542857Y-81433333D01*
X72304761Y-81433333D01*
X72209523Y-81480952D01*
X72161904Y-81528571D01*
X72114285Y-81623809D01*
X72114285Y-81861904D01*
X72161904Y-81957142D01*
X72209523Y-82004761D01*
X72304761Y-82052380D01*
X72542857Y-82052380D01*
X72638095Y-82004761D01*
X72685714Y-81957142D01*
X84857142Y-91833333D02*
X84904761Y-91785714D01*
X84952380Y-91642857D01*
X84952380Y-91547619D01*
X84904761Y-91404761D01*
X84809523Y-91309523D01*
X84714285Y-91261904D01*
X84523809Y-91214285D01*
X84380952Y-91214285D01*
X84190476Y-91261904D01*
X84095238Y-91309523D01*
X84000000Y-91404761D01*
X83952380Y-91547619D01*
X83952380Y-91642857D01*
X84000000Y-91785714D01*
X84047619Y-91833333D01*
X84380952Y-92404761D02*
X84333333Y-92309523D01*
X84285714Y-92261904D01*
X84190476Y-92214285D01*
X84142857Y-92214285D01*
X84047619Y-92261904D01*
X84000000Y-92309523D01*
X83952380Y-92404761D01*
X83952380Y-92595238D01*
X84000000Y-92690476D01*
X84047619Y-92738095D01*
X84142857Y-92785714D01*
X84190476Y-92785714D01*
X84285714Y-92738095D01*
X84333333Y-92690476D01*
X84380952Y-92595238D01*
X84380952Y-92404761D01*
X84428571Y-92309523D01*
X84476190Y-92261904D01*
X84571428Y-92214285D01*
X84761904Y-92214285D01*
X84857142Y-92261904D01*
X84904761Y-92309523D01*
X84952380Y-92404761D01*
X84952380Y-92595238D01*
X84904761Y-92690476D01*
X84857142Y-92738095D01*
X84761904Y-92785714D01*
X84571428Y-92785714D01*
X84476190Y-92738095D01*
X84428571Y-92690476D01*
X84380952Y-92595238D01*
X89266666Y-71057142D02*
X89314285Y-71104761D01*
X89457142Y-71152380D01*
X89552380Y-71152380D01*
X89695238Y-71104761D01*
X89790476Y-71009523D01*
X89838095Y-70914285D01*
X89885714Y-70723809D01*
X89885714Y-70580952D01*
X89838095Y-70390476D01*
X89790476Y-70295238D01*
X89695238Y-70200000D01*
X89552380Y-70152380D01*
X89457142Y-70152380D01*
X89314285Y-70200000D01*
X89266666Y-70247619D01*
X88933333Y-70152380D02*
X88266666Y-70152380D01*
X88695238Y-71152380D01*
X89066666Y-64957142D02*
X89114285Y-65004761D01*
X89257142Y-65052380D01*
X89352380Y-65052380D01*
X89495238Y-65004761D01*
X89590476Y-64909523D01*
X89638095Y-64814285D01*
X89685714Y-64623809D01*
X89685714Y-64480952D01*
X89638095Y-64290476D01*
X89590476Y-64195238D01*
X89495238Y-64100000D01*
X89352380Y-64052380D01*
X89257142Y-64052380D01*
X89114285Y-64100000D01*
X89066666Y-64147619D01*
X88209523Y-64052380D02*
X88400000Y-64052380D01*
X88495238Y-64100000D01*
X88542857Y-64147619D01*
X88638095Y-64290476D01*
X88685714Y-64480952D01*
X88685714Y-64861904D01*
X88638095Y-64957142D01*
X88590476Y-65004761D01*
X88495238Y-65052380D01*
X88304761Y-65052380D01*
X88209523Y-65004761D01*
X88161904Y-64957142D01*
X88114285Y-64861904D01*
X88114285Y-64623809D01*
X88161904Y-64528571D01*
X88209523Y-64480952D01*
X88304761Y-64433333D01*
X88495238Y-64433333D01*
X88590476Y-64480952D01*
X88638095Y-64528571D01*
X88685714Y-64623809D01*
X83057142Y-91833333D02*
X83104761Y-91785714D01*
X83152380Y-91642857D01*
X83152380Y-91547619D01*
X83104761Y-91404761D01*
X83009523Y-91309523D01*
X82914285Y-91261904D01*
X82723809Y-91214285D01*
X82580952Y-91214285D01*
X82390476Y-91261904D01*
X82295238Y-91309523D01*
X82200000Y-91404761D01*
X82152380Y-91547619D01*
X82152380Y-91642857D01*
X82200000Y-91785714D01*
X82247619Y-91833333D01*
X83152380Y-92785714D02*
X83152380Y-92214285D01*
X83152380Y-92500000D02*
X82152380Y-92500000D01*
X82295238Y-92404761D01*
X82390476Y-92309523D01*
X82438095Y-92214285D01*
X77042857Y-75052380D02*
X77376190Y-74576190D01*
X77614285Y-75052380D02*
X77614285Y-74052380D01*
X77233333Y-74052380D01*
X77138095Y-74100000D01*
X77090476Y-74147619D01*
X77042857Y-74242857D01*
X77042857Y-74385714D01*
X77090476Y-74480952D01*
X77138095Y-74528571D01*
X77233333Y-74576190D01*
X77614285Y-74576190D01*
X76185714Y-74385714D02*
X76185714Y-75052380D01*
X76423809Y-74004761D02*
X76661904Y-74719047D01*
X76042857Y-74719047D01*
X75185714Y-74052380D02*
X75661904Y-74052380D01*
X75709523Y-74528571D01*
X75661904Y-74480952D01*
X75566666Y-74433333D01*
X75328571Y-74433333D01*
X75233333Y-74480952D01*
X75185714Y-74528571D01*
X75138095Y-74623809D01*
X75138095Y-74861904D01*
X75185714Y-74957142D01*
X75233333Y-75004761D01*
X75328571Y-75052380D01*
X75566666Y-75052380D01*
X75661904Y-75004761D01*
X75709523Y-74957142D01*
X70703190Y-82882609D02*
X71179380Y-82882609D01*
X70179380Y-82549276D02*
X70703190Y-82882609D01*
X70179380Y-83215942D01*
X71179380Y-84073085D02*
X71179380Y-83501657D01*
X71179380Y-83787371D02*
X70179380Y-83787371D01*
X70322238Y-83692133D01*
X70417476Y-83596895D01*
X70465095Y-83501657D01*
X78361904Y-72552380D02*
X78361904Y-73361904D01*
X78314285Y-73457142D01*
X78266666Y-73504761D01*
X78171428Y-73552380D01*
X77980952Y-73552380D01*
X77885714Y-73504761D01*
X77838095Y-73457142D01*
X77790476Y-73361904D01*
X77790476Y-72552380D01*
X76885714Y-72885714D02*
X76885714Y-73552380D01*
X77123809Y-72504761D02*
X77361904Y-73219047D01*
X76742857Y-73219047D01*
X126861904Y-64632380D02*
X126861904Y-65441904D01*
X126814285Y-65537142D01*
X126766666Y-65584761D01*
X126671428Y-65632380D01*
X126480952Y-65632380D01*
X126385714Y-65584761D01*
X126338095Y-65537142D01*
X126290476Y-65441904D01*
X126290476Y-64632380D01*
X125909523Y-64632380D02*
X125290476Y-64632380D01*
X125623809Y-65013333D01*
X125480952Y-65013333D01*
X125385714Y-65060952D01*
X125338095Y-65108571D01*
X125290476Y-65203809D01*
X125290476Y-65441904D01*
X125338095Y-65537142D01*
X125385714Y-65584761D01*
X125480952Y-65632380D01*
X125766666Y-65632380D01*
X125861904Y-65584761D01*
X125909523Y-65537142D01*
X86461904Y-82952380D02*
X86461904Y-83761904D01*
X86414285Y-83857142D01*
X86366666Y-83904761D01*
X86271428Y-83952380D01*
X86080952Y-83952380D01*
X85985714Y-83904761D01*
X85938095Y-83857142D01*
X85890476Y-83761904D01*
X85890476Y-82952380D01*
X84890476Y-83952380D02*
X85461904Y-83952380D01*
X85176190Y-83952380D02*
X85176190Y-82952380D01*
X85271428Y-83095238D01*
X85366666Y-83190476D01*
X85461904Y-83238095D01*
X81344380Y-69339142D02*
X80868190Y-69005809D01*
X81344380Y-68767714D02*
X80344380Y-68767714D01*
X80344380Y-69148666D01*
X80392000Y-69243904D01*
X80439619Y-69291523D01*
X80534857Y-69339142D01*
X80677714Y-69339142D01*
X80772952Y-69291523D01*
X80820571Y-69243904D01*
X80868190Y-69148666D01*
X80868190Y-68767714D01*
X80677714Y-70196285D02*
X81344380Y-70196285D01*
X80296761Y-69958190D02*
X81011047Y-69720095D01*
X81011047Y-70339142D01*
X80344380Y-70910571D02*
X80344380Y-71005809D01*
X80392000Y-71101047D01*
X80439619Y-71148666D01*
X80534857Y-71196285D01*
X80725333Y-71243904D01*
X80963428Y-71243904D01*
X81153904Y-71196285D01*
X81249142Y-71148666D01*
X81296761Y-71101047D01*
X81344380Y-71005809D01*
X81344380Y-70910571D01*
X81296761Y-70815333D01*
X81249142Y-70767714D01*
X81153904Y-70720095D01*
X80963428Y-70672476D01*
X80725333Y-70672476D01*
X80534857Y-70720095D01*
X80439619Y-70767714D01*
X80392000Y-70815333D01*
X80344380Y-70910571D01*
X81552380Y-65557142D02*
X81076190Y-65223809D01*
X81552380Y-64985714D02*
X80552380Y-64985714D01*
X80552380Y-65366666D01*
X80600000Y-65461904D01*
X80647619Y-65509523D01*
X80742857Y-65557142D01*
X80885714Y-65557142D01*
X80980952Y-65509523D01*
X81028571Y-65461904D01*
X81076190Y-65366666D01*
X81076190Y-64985714D01*
X80552380Y-65890476D02*
X80552380Y-66509523D01*
X80933333Y-66176190D01*
X80933333Y-66319047D01*
X80980952Y-66414285D01*
X81028571Y-66461904D01*
X81123809Y-66509523D01*
X81361904Y-66509523D01*
X81457142Y-66461904D01*
X81504761Y-66414285D01*
X81552380Y-66319047D01*
X81552380Y-66033333D01*
X81504761Y-65938095D01*
X81457142Y-65890476D01*
X81552380Y-66985714D02*
X81552380Y-67176190D01*
X81504761Y-67271428D01*
X81457142Y-67319047D01*
X81314285Y-67414285D01*
X81123809Y-67461904D01*
X80742857Y-67461904D01*
X80647619Y-67414285D01*
X80600000Y-67366666D01*
X80552380Y-67271428D01*
X80552380Y-67080952D01*
X80600000Y-66985714D01*
X80647619Y-66938095D01*
X80742857Y-66890476D01*
X80980952Y-66890476D01*
X81076190Y-66938095D01*
X81123809Y-66985714D01*
X81171428Y-67080952D01*
X81171428Y-67271428D01*
X81123809Y-67366666D01*
X81076190Y-67414285D01*
X80980952Y-67461904D01*
X74442857Y-61152380D02*
X74776190Y-60676190D01*
X75014285Y-61152380D02*
X75014285Y-60152380D01*
X74633333Y-60152380D01*
X74538095Y-60200000D01*
X74490476Y-60247619D01*
X74442857Y-60342857D01*
X74442857Y-60485714D01*
X74490476Y-60580952D01*
X74538095Y-60628571D01*
X74633333Y-60676190D01*
X75014285Y-60676190D01*
X74109523Y-60152380D02*
X73490476Y-60152380D01*
X73823809Y-60533333D01*
X73680952Y-60533333D01*
X73585714Y-60580952D01*
X73538095Y-60628571D01*
X73490476Y-60723809D01*
X73490476Y-60961904D01*
X73538095Y-61057142D01*
X73585714Y-61104761D01*
X73680952Y-61152380D01*
X73966666Y-61152380D01*
X74061904Y-61104761D01*
X74109523Y-61057142D01*
X72919047Y-60580952D02*
X73014285Y-60533333D01*
X73061904Y-60485714D01*
X73109523Y-60390476D01*
X73109523Y-60342857D01*
X73061904Y-60247619D01*
X73014285Y-60200000D01*
X72919047Y-60152380D01*
X72728571Y-60152380D01*
X72633333Y-60200000D01*
X72585714Y-60247619D01*
X72538095Y-60342857D01*
X72538095Y-60390476D01*
X72585714Y-60485714D01*
X72633333Y-60533333D01*
X72728571Y-60580952D01*
X72919047Y-60580952D01*
X73014285Y-60628571D01*
X73061904Y-60676190D01*
X73109523Y-60771428D01*
X73109523Y-60961904D01*
X73061904Y-61057142D01*
X73014285Y-61104761D01*
X72919047Y-61152380D01*
X72728571Y-61152380D01*
X72633333Y-61104761D01*
X72585714Y-61057142D01*
X72538095Y-60961904D01*
X72538095Y-60771428D01*
X72585714Y-60676190D01*
X72633333Y-60628571D01*
X72728571Y-60580952D01*
X137292857Y-71052380D02*
X137626190Y-70576190D01*
X137864285Y-71052380D02*
X137864285Y-70052380D01*
X137483333Y-70052380D01*
X137388095Y-70100000D01*
X137340476Y-70147619D01*
X137292857Y-70242857D01*
X137292857Y-70385714D01*
X137340476Y-70480952D01*
X137388095Y-70528571D01*
X137483333Y-70576190D01*
X137864285Y-70576190D01*
X136959523Y-70052380D02*
X136340476Y-70052380D01*
X136673809Y-70433333D01*
X136530952Y-70433333D01*
X136435714Y-70480952D01*
X136388095Y-70528571D01*
X136340476Y-70623809D01*
X136340476Y-70861904D01*
X136388095Y-70957142D01*
X136435714Y-71004761D01*
X136530952Y-71052380D01*
X136816666Y-71052380D01*
X136911904Y-71004761D01*
X136959523Y-70957142D01*
X135435714Y-70052380D02*
X135911904Y-70052380D01*
X135959523Y-70528571D01*
X135911904Y-70480952D01*
X135816666Y-70433333D01*
X135578571Y-70433333D01*
X135483333Y-70480952D01*
X135435714Y-70528571D01*
X135388095Y-70623809D01*
X135388095Y-70861904D01*
X135435714Y-70957142D01*
X135483333Y-71004761D01*
X135578571Y-71052380D01*
X135816666Y-71052380D01*
X135911904Y-71004761D01*
X135959523Y-70957142D01*
X144302380Y-66157142D02*
X143826190Y-65823809D01*
X144302380Y-65585714D02*
X143302380Y-65585714D01*
X143302380Y-65966666D01*
X143350000Y-66061904D01*
X143397619Y-66109523D01*
X143492857Y-66157142D01*
X143635714Y-66157142D01*
X143730952Y-66109523D01*
X143778571Y-66061904D01*
X143826190Y-65966666D01*
X143826190Y-65585714D01*
X143302380Y-66490476D02*
X143302380Y-67109523D01*
X143683333Y-66776190D01*
X143683333Y-66919047D01*
X143730952Y-67014285D01*
X143778571Y-67061904D01*
X143873809Y-67109523D01*
X144111904Y-67109523D01*
X144207142Y-67061904D01*
X144254761Y-67014285D01*
X144302380Y-66919047D01*
X144302380Y-66633333D01*
X144254761Y-66538095D01*
X144207142Y-66490476D01*
X143635714Y-67966666D02*
X144302380Y-67966666D01*
X143254761Y-67728571D02*
X143969047Y-67490476D01*
X143969047Y-68109523D01*
X135017857Y-65602380D02*
X135351190Y-65126190D01*
X135589285Y-65602380D02*
X135589285Y-64602380D01*
X135208333Y-64602380D01*
X135113095Y-64650000D01*
X135065476Y-64697619D01*
X135017857Y-64792857D01*
X135017857Y-64935714D01*
X135065476Y-65030952D01*
X135113095Y-65078571D01*
X135208333Y-65126190D01*
X135589285Y-65126190D01*
X134684523Y-64602380D02*
X134065476Y-64602380D01*
X134398809Y-64983333D01*
X134255952Y-64983333D01*
X134160714Y-65030952D01*
X134113095Y-65078571D01*
X134065476Y-65173809D01*
X134065476Y-65411904D01*
X134113095Y-65507142D01*
X134160714Y-65554761D01*
X134255952Y-65602380D01*
X134541666Y-65602380D01*
X134636904Y-65554761D01*
X134684523Y-65507142D01*
X133732142Y-64602380D02*
X133113095Y-64602380D01*
X133446428Y-64983333D01*
X133303571Y-64983333D01*
X133208333Y-65030952D01*
X133160714Y-65078571D01*
X133113095Y-65173809D01*
X133113095Y-65411904D01*
X133160714Y-65507142D01*
X133208333Y-65554761D01*
X133303571Y-65602380D01*
X133589285Y-65602380D01*
X133684523Y-65554761D01*
X133732142Y-65507142D01*
X139042857Y-65602380D02*
X139376190Y-65126190D01*
X139614285Y-65602380D02*
X139614285Y-64602380D01*
X139233333Y-64602380D01*
X139138095Y-64650000D01*
X139090476Y-64697619D01*
X139042857Y-64792857D01*
X139042857Y-64935714D01*
X139090476Y-65030952D01*
X139138095Y-65078571D01*
X139233333Y-65126190D01*
X139614285Y-65126190D01*
X138709523Y-64602380D02*
X138090476Y-64602380D01*
X138423809Y-64983333D01*
X138280952Y-64983333D01*
X138185714Y-65030952D01*
X138138095Y-65078571D01*
X138090476Y-65173809D01*
X138090476Y-65411904D01*
X138138095Y-65507142D01*
X138185714Y-65554761D01*
X138280952Y-65602380D01*
X138566666Y-65602380D01*
X138661904Y-65554761D01*
X138709523Y-65507142D01*
X137709523Y-64697619D02*
X137661904Y-64650000D01*
X137566666Y-64602380D01*
X137328571Y-64602380D01*
X137233333Y-64650000D01*
X137185714Y-64697619D01*
X137138095Y-64792857D01*
X137138095Y-64888095D01*
X137185714Y-65030952D01*
X137757142Y-65602380D01*
X137138095Y-65602380D01*
X115352380Y-76757142D02*
X114876190Y-76423809D01*
X115352380Y-76185714D02*
X114352380Y-76185714D01*
X114352380Y-76566666D01*
X114400000Y-76661904D01*
X114447619Y-76709523D01*
X114542857Y-76757142D01*
X114685714Y-76757142D01*
X114780952Y-76709523D01*
X114828571Y-76661904D01*
X114876190Y-76566666D01*
X114876190Y-76185714D01*
X114352380Y-77090476D02*
X114352380Y-77709523D01*
X114733333Y-77376190D01*
X114733333Y-77519047D01*
X114780952Y-77614285D01*
X114828571Y-77661904D01*
X114923809Y-77709523D01*
X115161904Y-77709523D01*
X115257142Y-77661904D01*
X115304761Y-77614285D01*
X115352380Y-77519047D01*
X115352380Y-77233333D01*
X115304761Y-77138095D01*
X115257142Y-77090476D01*
X115352380Y-78661904D02*
X115352380Y-78090476D01*
X115352380Y-78376190D02*
X114352380Y-78376190D01*
X114495238Y-78280952D01*
X114590476Y-78185714D01*
X114638095Y-78090476D01*
X109542857Y-77652380D02*
X109876190Y-77176190D01*
X110114285Y-77652380D02*
X110114285Y-76652380D01*
X109733333Y-76652380D01*
X109638095Y-76700000D01*
X109590476Y-76747619D01*
X109542857Y-76842857D01*
X109542857Y-76985714D01*
X109590476Y-77080952D01*
X109638095Y-77128571D01*
X109733333Y-77176190D01*
X110114285Y-77176190D01*
X109209523Y-76652380D02*
X108590476Y-76652380D01*
X108923809Y-77033333D01*
X108780952Y-77033333D01*
X108685714Y-77080952D01*
X108638095Y-77128571D01*
X108590476Y-77223809D01*
X108590476Y-77461904D01*
X108638095Y-77557142D01*
X108685714Y-77604761D01*
X108780952Y-77652380D01*
X109066666Y-77652380D01*
X109161904Y-77604761D01*
X109209523Y-77557142D01*
X107971428Y-76652380D02*
X107876190Y-76652380D01*
X107780952Y-76700000D01*
X107733333Y-76747619D01*
X107685714Y-76842857D01*
X107638095Y-77033333D01*
X107638095Y-77271428D01*
X107685714Y-77461904D01*
X107733333Y-77557142D01*
X107780952Y-77604761D01*
X107876190Y-77652380D01*
X107971428Y-77652380D01*
X108066666Y-77604761D01*
X108114285Y-77557142D01*
X108161904Y-77461904D01*
X108209523Y-77271428D01*
X108209523Y-77033333D01*
X108161904Y-76842857D01*
X108114285Y-76747619D01*
X108066666Y-76700000D01*
X107971428Y-76652380D01*
X142552380Y-72557142D02*
X142076190Y-72223809D01*
X142552380Y-71985714D02*
X141552380Y-71985714D01*
X141552380Y-72366666D01*
X141600000Y-72461904D01*
X141647619Y-72509523D01*
X141742857Y-72557142D01*
X141885714Y-72557142D01*
X141980952Y-72509523D01*
X142028571Y-72461904D01*
X142076190Y-72366666D01*
X142076190Y-71985714D01*
X141647619Y-72938095D02*
X141600000Y-72985714D01*
X141552380Y-73080952D01*
X141552380Y-73319047D01*
X141600000Y-73414285D01*
X141647619Y-73461904D01*
X141742857Y-73509523D01*
X141838095Y-73509523D01*
X141980952Y-73461904D01*
X142552380Y-72890476D01*
X142552380Y-73509523D01*
X141552380Y-74128571D02*
X141552380Y-74223809D01*
X141600000Y-74319047D01*
X141647619Y-74366666D01*
X141742857Y-74414285D01*
X141933333Y-74461904D01*
X142171428Y-74461904D01*
X142361904Y-74414285D01*
X142457142Y-74366666D01*
X142504761Y-74319047D01*
X142552380Y-74223809D01*
X142552380Y-74128571D01*
X142504761Y-74033333D01*
X142457142Y-73985714D01*
X142361904Y-73938095D01*
X142171428Y-73890476D01*
X141933333Y-73890476D01*
X141742857Y-73938095D01*
X141647619Y-73985714D01*
X141600000Y-74033333D01*
X141552380Y-74128571D01*
X73853380Y-86611142D02*
X73377190Y-86277809D01*
X73853380Y-86039714D02*
X72853380Y-86039714D01*
X72853380Y-86420666D01*
X72901000Y-86515904D01*
X72948619Y-86563523D01*
X73043857Y-86611142D01*
X73186714Y-86611142D01*
X73281952Y-86563523D01*
X73329571Y-86515904D01*
X73377190Y-86420666D01*
X73377190Y-86039714D01*
X73853380Y-87563523D02*
X73853380Y-86992095D01*
X73853380Y-87277809D02*
X72853380Y-87277809D01*
X72996238Y-87182571D01*
X73091476Y-87087333D01*
X73139095Y-86992095D01*
X73853380Y-88039714D02*
X73853380Y-88230190D01*
X73805761Y-88325428D01*
X73758142Y-88373047D01*
X73615285Y-88468285D01*
X73424809Y-88515904D01*
X73043857Y-88515904D01*
X72948619Y-88468285D01*
X72901000Y-88420666D01*
X72853380Y-88325428D01*
X72853380Y-88134952D01*
X72901000Y-88039714D01*
X72948619Y-87992095D01*
X73043857Y-87944476D01*
X73281952Y-87944476D01*
X73377190Y-87992095D01*
X73424809Y-88039714D01*
X73472428Y-88134952D01*
X73472428Y-88325428D01*
X73424809Y-88420666D01*
X73377190Y-88468285D01*
X73281952Y-88515904D01*
X86952380Y-91757142D02*
X86476190Y-91423809D01*
X86952380Y-91185714D02*
X85952380Y-91185714D01*
X85952380Y-91566666D01*
X86000000Y-91661904D01*
X86047619Y-91709523D01*
X86142857Y-91757142D01*
X86285714Y-91757142D01*
X86380952Y-91709523D01*
X86428571Y-91661904D01*
X86476190Y-91566666D01*
X86476190Y-91185714D01*
X86952380Y-92709523D02*
X86952380Y-92138095D01*
X86952380Y-92423809D02*
X85952380Y-92423809D01*
X86095238Y-92328571D01*
X86190476Y-92233333D01*
X86238095Y-92138095D01*
X86380952Y-93280952D02*
X86333333Y-93185714D01*
X86285714Y-93138095D01*
X86190476Y-93090476D01*
X86142857Y-93090476D01*
X86047619Y-93138095D01*
X86000000Y-93185714D01*
X85952380Y-93280952D01*
X85952380Y-93471428D01*
X86000000Y-93566666D01*
X86047619Y-93614285D01*
X86142857Y-93661904D01*
X86190476Y-93661904D01*
X86285714Y-93614285D01*
X86333333Y-93566666D01*
X86380952Y-93471428D01*
X86380952Y-93280952D01*
X86428571Y-93185714D01*
X86476190Y-93138095D01*
X86571428Y-93090476D01*
X86761904Y-93090476D01*
X86857142Y-93138095D01*
X86904761Y-93185714D01*
X86952380Y-93280952D01*
X86952380Y-93471428D01*
X86904761Y-93566666D01*
X86857142Y-93614285D01*
X86761904Y-93661904D01*
X86571428Y-93661904D01*
X86476190Y-93614285D01*
X86428571Y-93566666D01*
X86380952Y-93471428D01*
X90042857Y-68552380D02*
X90376190Y-68076190D01*
X90614285Y-68552380D02*
X90614285Y-67552380D01*
X90233333Y-67552380D01*
X90138095Y-67600000D01*
X90090476Y-67647619D01*
X90042857Y-67742857D01*
X90042857Y-67885714D01*
X90090476Y-67980952D01*
X90138095Y-68028571D01*
X90233333Y-68076190D01*
X90614285Y-68076190D01*
X89090476Y-68552380D02*
X89661904Y-68552380D01*
X89376190Y-68552380D02*
X89376190Y-67552380D01*
X89471428Y-67695238D01*
X89566666Y-67790476D01*
X89661904Y-67838095D01*
X88757142Y-67552380D02*
X88090476Y-67552380D01*
X88519047Y-68552380D01*
X90042857Y-67052380D02*
X90376190Y-66576190D01*
X90614285Y-67052380D02*
X90614285Y-66052380D01*
X90233333Y-66052380D01*
X90138095Y-66100000D01*
X90090476Y-66147619D01*
X90042857Y-66242857D01*
X90042857Y-66385714D01*
X90090476Y-66480952D01*
X90138095Y-66528571D01*
X90233333Y-66576190D01*
X90614285Y-66576190D01*
X89090476Y-67052380D02*
X89661904Y-67052380D01*
X89376190Y-67052380D02*
X89376190Y-66052380D01*
X89471428Y-66195238D01*
X89566666Y-66290476D01*
X89661904Y-66338095D01*
X88233333Y-66052380D02*
X88423809Y-66052380D01*
X88519047Y-66100000D01*
X88566666Y-66147619D01*
X88661904Y-66290476D01*
X88709523Y-66480952D01*
X88709523Y-66861904D01*
X88661904Y-66957142D01*
X88614285Y-67004761D01*
X88519047Y-67052380D01*
X88328571Y-67052380D01*
X88233333Y-67004761D01*
X88185714Y-66957142D01*
X88138095Y-66861904D01*
X88138095Y-66623809D01*
X88185714Y-66528571D01*
X88233333Y-66480952D01*
X88328571Y-66433333D01*
X88519047Y-66433333D01*
X88614285Y-66480952D01*
X88661904Y-66528571D01*
X88709523Y-66623809D01*
X77352380Y-91633333D02*
X76876190Y-91300000D01*
X77352380Y-91061904D02*
X76352380Y-91061904D01*
X76352380Y-91442857D01*
X76400000Y-91538095D01*
X76447619Y-91585714D01*
X76542857Y-91633333D01*
X76685714Y-91633333D01*
X76780952Y-91585714D01*
X76828571Y-91538095D01*
X76876190Y-91442857D01*
X76876190Y-91061904D01*
X76352380Y-91966666D02*
X76352380Y-92585714D01*
X76733333Y-92252380D01*
X76733333Y-92395238D01*
X76780952Y-92490476D01*
X76828571Y-92538095D01*
X76923809Y-92585714D01*
X77161904Y-92585714D01*
X77257142Y-92538095D01*
X77304761Y-92490476D01*
X77352380Y-92395238D01*
X77352380Y-92109523D01*
X77304761Y-92014285D01*
X77257142Y-91966666D01*
X81252380Y-91733333D02*
X80776190Y-91400000D01*
X81252380Y-91161904D02*
X80252380Y-91161904D01*
X80252380Y-91542857D01*
X80300000Y-91638095D01*
X80347619Y-91685714D01*
X80442857Y-91733333D01*
X80585714Y-91733333D01*
X80680952Y-91685714D01*
X80728571Y-91638095D01*
X80776190Y-91542857D01*
X80776190Y-91161904D01*
X81252380Y-92685714D02*
X81252380Y-92114285D01*
X81252380Y-92400000D02*
X80252380Y-92400000D01*
X80395238Y-92304761D01*
X80490476Y-92209523D01*
X80538095Y-92114285D01*
X118547619Y-73704761D02*
X118500000Y-73609523D01*
X118404761Y-73514285D01*
X118261904Y-73371428D01*
X118214285Y-73276190D01*
X118214285Y-73180952D01*
X118452380Y-73228571D02*
X118404761Y-73133333D01*
X118309523Y-73038095D01*
X118119047Y-72990476D01*
X117785714Y-72990476D01*
X117595238Y-73038095D01*
X117500000Y-73133333D01*
X117452380Y-73228571D01*
X117452380Y-73419047D01*
X117500000Y-73514285D01*
X117595238Y-73609523D01*
X117785714Y-73657142D01*
X118119047Y-73657142D01*
X118309523Y-73609523D01*
X118404761Y-73514285D01*
X118452380Y-73419047D01*
X118452380Y-73228571D01*
X117880952Y-74228571D02*
X117833333Y-74133333D01*
X117785714Y-74085714D01*
X117690476Y-74038095D01*
X117642857Y-74038095D01*
X117547619Y-74085714D01*
X117500000Y-74133333D01*
X117452380Y-74228571D01*
X117452380Y-74419047D01*
X117500000Y-74514285D01*
X117547619Y-74561904D01*
X117642857Y-74609523D01*
X117690476Y-74609523D01*
X117785714Y-74561904D01*
X117833333Y-74514285D01*
X117880952Y-74419047D01*
X117880952Y-74228571D01*
X117928571Y-74133333D01*
X117976190Y-74085714D01*
X118071428Y-74038095D01*
X118261904Y-74038095D01*
X118357142Y-74085714D01*
X118404761Y-74133333D01*
X118452380Y-74228571D01*
X118452380Y-74419047D01*
X118404761Y-74514285D01*
X118357142Y-74561904D01*
X118261904Y-74609523D01*
X118071428Y-74609523D01*
X117976190Y-74561904D01*
X117928571Y-74514285D01*
X117880952Y-74419047D01*
X113407619Y-73834761D02*
X113360000Y-73739523D01*
X113264761Y-73644285D01*
X113121904Y-73501428D01*
X113074285Y-73406190D01*
X113074285Y-73310952D01*
X113312380Y-73358571D02*
X113264761Y-73263333D01*
X113169523Y-73168095D01*
X112979047Y-73120476D01*
X112645714Y-73120476D01*
X112455238Y-73168095D01*
X112360000Y-73263333D01*
X112312380Y-73358571D01*
X112312380Y-73549047D01*
X112360000Y-73644285D01*
X112455238Y-73739523D01*
X112645714Y-73787142D01*
X112979047Y-73787142D01*
X113169523Y-73739523D01*
X113264761Y-73644285D01*
X113312380Y-73549047D01*
X113312380Y-73358571D01*
X112312380Y-74120476D02*
X112312380Y-74787142D01*
X113312380Y-74358571D01*
X74414285Y-64952380D02*
X74414285Y-63952380D01*
X74176190Y-63952380D01*
X74033333Y-64000000D01*
X73938095Y-64095238D01*
X73890476Y-64190476D01*
X73842857Y-64380952D01*
X73842857Y-64523809D01*
X73890476Y-64714285D01*
X73938095Y-64809523D01*
X74033333Y-64904761D01*
X74176190Y-64952380D01*
X74414285Y-64952380D01*
X72890476Y-64952380D02*
X73461904Y-64952380D01*
X73176190Y-64952380D02*
X73176190Y-63952380D01*
X73271428Y-64095238D01*
X73366666Y-64190476D01*
X73461904Y-64238095D01*
X72271428Y-63952380D02*
X72176190Y-63952380D01*
X72080952Y-64000000D01*
X72033333Y-64047619D01*
X71985714Y-64142857D01*
X71938095Y-64333333D01*
X71938095Y-64571428D01*
X71985714Y-64761904D01*
X72033333Y-64857142D01*
X72080952Y-64904761D01*
X72176190Y-64952380D01*
X72271428Y-64952380D01*
X72366666Y-64904761D01*
X72414285Y-64857142D01*
X72461904Y-64761904D01*
X72509523Y-64571428D01*
X72509523Y-64333333D01*
X72461904Y-64142857D01*
X72414285Y-64047619D01*
X72366666Y-64000000D01*
X72271428Y-63952380D01*
X86289880Y-108096904D02*
X85289880Y-108096904D01*
X85289880Y-108335000D01*
X85337500Y-108477857D01*
X85432738Y-108573095D01*
X85527976Y-108620714D01*
X85718452Y-108668333D01*
X85861309Y-108668333D01*
X86051785Y-108620714D01*
X86147023Y-108573095D01*
X86242261Y-108477857D01*
X86289880Y-108335000D01*
X86289880Y-108096904D01*
X85289880Y-109001666D02*
X85289880Y-109668333D01*
X86289880Y-109239761D01*
X74442857Y-62957142D02*
X74490476Y-63004761D01*
X74633333Y-63052380D01*
X74728571Y-63052380D01*
X74871428Y-63004761D01*
X74966666Y-62909523D01*
X75014285Y-62814285D01*
X75061904Y-62623809D01*
X75061904Y-62480952D01*
X75014285Y-62290476D01*
X74966666Y-62195238D01*
X74871428Y-62100000D01*
X74728571Y-62052380D01*
X74633333Y-62052380D01*
X74490476Y-62100000D01*
X74442857Y-62147619D01*
X74061904Y-62147619D02*
X74014285Y-62100000D01*
X73919047Y-62052380D01*
X73680952Y-62052380D01*
X73585714Y-62100000D01*
X73538095Y-62147619D01*
X73490476Y-62242857D01*
X73490476Y-62338095D01*
X73538095Y-62480952D01*
X74109523Y-63052380D01*
X73490476Y-63052380D01*
X73014285Y-63052380D02*
X72823809Y-63052380D01*
X72728571Y-63004761D01*
X72680952Y-62957142D01*
X72585714Y-62814285D01*
X72538095Y-62623809D01*
X72538095Y-62242857D01*
X72585714Y-62147619D01*
X72633333Y-62100000D01*
X72728571Y-62052380D01*
X72919047Y-62052380D01*
X73014285Y-62100000D01*
X73061904Y-62147619D01*
X73109523Y-62242857D01*
X73109523Y-62480952D01*
X73061904Y-62576190D01*
X73014285Y-62623809D01*
X72919047Y-62671428D01*
X72728571Y-62671428D01*
X72633333Y-62623809D01*
X72585714Y-62576190D01*
X72538095Y-62480952D01*
X74157142Y-65857142D02*
X74204761Y-65809523D01*
X74252380Y-65666666D01*
X74252380Y-65571428D01*
X74204761Y-65428571D01*
X74109523Y-65333333D01*
X74014285Y-65285714D01*
X73823809Y-65238095D01*
X73680952Y-65238095D01*
X73490476Y-65285714D01*
X73395238Y-65333333D01*
X73300000Y-65428571D01*
X73252380Y-65571428D01*
X73252380Y-65666666D01*
X73300000Y-65809523D01*
X73347619Y-65857142D01*
X73347619Y-66238095D02*
X73300000Y-66285714D01*
X73252380Y-66380952D01*
X73252380Y-66619047D01*
X73300000Y-66714285D01*
X73347619Y-66761904D01*
X73442857Y-66809523D01*
X73538095Y-66809523D01*
X73680952Y-66761904D01*
X74252380Y-66190476D01*
X74252380Y-66809523D01*
X73252380Y-67142857D02*
X73252380Y-67809523D01*
X74252380Y-67380952D01*
X69457142Y-69124642D02*
X69504761Y-69077023D01*
X69552380Y-68934166D01*
X69552380Y-68838928D01*
X69504761Y-68696071D01*
X69409523Y-68600833D01*
X69314285Y-68553214D01*
X69123809Y-68505595D01*
X68980952Y-68505595D01*
X68790476Y-68553214D01*
X68695238Y-68600833D01*
X68600000Y-68696071D01*
X68552380Y-68838928D01*
X68552380Y-68934166D01*
X68600000Y-69077023D01*
X68647619Y-69124642D01*
X68647619Y-69505595D02*
X68600000Y-69553214D01*
X68552380Y-69648452D01*
X68552380Y-69886547D01*
X68600000Y-69981785D01*
X68647619Y-70029404D01*
X68742857Y-70077023D01*
X68838095Y-70077023D01*
X68980952Y-70029404D01*
X69552380Y-69457976D01*
X69552380Y-70077023D01*
X68552380Y-70934166D02*
X68552380Y-70743690D01*
X68600000Y-70648452D01*
X68647619Y-70600833D01*
X68790476Y-70505595D01*
X68980952Y-70457976D01*
X69361904Y-70457976D01*
X69457142Y-70505595D01*
X69504761Y-70553214D01*
X69552380Y-70648452D01*
X69552380Y-70838928D01*
X69504761Y-70934166D01*
X69457142Y-70981785D01*
X69361904Y-71029404D01*
X69123809Y-71029404D01*
X69028571Y-70981785D01*
X68980952Y-70934166D01*
X68933333Y-70838928D01*
X68933333Y-70648452D01*
X68980952Y-70553214D01*
X69028571Y-70505595D01*
X69123809Y-70457976D01*
X116057142Y-67657142D02*
X116104761Y-67609523D01*
X116152380Y-67466666D01*
X116152380Y-67371428D01*
X116104761Y-67228571D01*
X116009523Y-67133333D01*
X115914285Y-67085714D01*
X115723809Y-67038095D01*
X115580952Y-67038095D01*
X115390476Y-67085714D01*
X115295238Y-67133333D01*
X115200000Y-67228571D01*
X115152380Y-67371428D01*
X115152380Y-67466666D01*
X115200000Y-67609523D01*
X115247619Y-67657142D01*
X115247619Y-68038095D02*
X115200000Y-68085714D01*
X115152380Y-68180952D01*
X115152380Y-68419047D01*
X115200000Y-68514285D01*
X115247619Y-68561904D01*
X115342857Y-68609523D01*
X115438095Y-68609523D01*
X115580952Y-68561904D01*
X116152380Y-67990476D01*
X116152380Y-68609523D01*
X115152380Y-69514285D02*
X115152380Y-69038095D01*
X115628571Y-68990476D01*
X115580952Y-69038095D01*
X115533333Y-69133333D01*
X115533333Y-69371428D01*
X115580952Y-69466666D01*
X115628571Y-69514285D01*
X115723809Y-69561904D01*
X115961904Y-69561904D01*
X116057142Y-69514285D01*
X116104761Y-69466666D01*
X116152380Y-69371428D01*
X116152380Y-69133333D01*
X116104761Y-69038095D01*
X116057142Y-68990476D01*
X61820142Y-79365442D02*
X61867761Y-79317823D01*
X61915380Y-79174966D01*
X61915380Y-79079728D01*
X61867761Y-78936871D01*
X61772523Y-78841633D01*
X61677285Y-78794014D01*
X61486809Y-78746395D01*
X61343952Y-78746395D01*
X61153476Y-78794014D01*
X61058238Y-78841633D01*
X60963000Y-78936871D01*
X60915380Y-79079728D01*
X60915380Y-79174966D01*
X60963000Y-79317823D01*
X61010619Y-79365442D01*
X61915380Y-80317823D02*
X61915380Y-79746395D01*
X61915380Y-80032109D02*
X60915380Y-80032109D01*
X61058238Y-79936871D01*
X61153476Y-79841633D01*
X61201095Y-79746395D01*
X61915380Y-81270204D02*
X61915380Y-80698776D01*
X61915380Y-80984490D02*
X60915380Y-80984490D01*
X61058238Y-80889252D01*
X61153476Y-80794014D01*
X61201095Y-80698776D01*
X61757142Y-86057142D02*
X61804761Y-86009523D01*
X61852380Y-85866666D01*
X61852380Y-85771428D01*
X61804761Y-85628571D01*
X61709523Y-85533333D01*
X61614285Y-85485714D01*
X61423809Y-85438095D01*
X61280952Y-85438095D01*
X61090476Y-85485714D01*
X60995238Y-85533333D01*
X60900000Y-85628571D01*
X60852380Y-85771428D01*
X60852380Y-85866666D01*
X60900000Y-86009523D01*
X60947619Y-86057142D01*
X61852380Y-87009523D02*
X61852380Y-86438095D01*
X61852380Y-86723809D02*
X60852380Y-86723809D01*
X60995238Y-86628571D01*
X61090476Y-86533333D01*
X61138095Y-86438095D01*
X60852380Y-87628571D02*
X60852380Y-87723809D01*
X60900000Y-87819047D01*
X60947619Y-87866666D01*
X61042857Y-87914285D01*
X61233333Y-87961904D01*
X61471428Y-87961904D01*
X61661904Y-87914285D01*
X61757142Y-87866666D01*
X61804761Y-87819047D01*
X61852380Y-87723809D01*
X61852380Y-87628571D01*
X61804761Y-87533333D01*
X61757142Y-87485714D01*
X61661904Y-87438095D01*
X61471428Y-87390476D01*
X61233333Y-87390476D01*
X61042857Y-87438095D01*
X60947619Y-87485714D01*
X60900000Y-87533333D01*
X60852380Y-87628571D01*
X66708666Y-60552142D02*
X66756285Y-60599761D01*
X66899142Y-60647380D01*
X66994380Y-60647380D01*
X67137238Y-60599761D01*
X67232476Y-60504523D01*
X67280095Y-60409285D01*
X67327714Y-60218809D01*
X67327714Y-60075952D01*
X67280095Y-59885476D01*
X67232476Y-59790238D01*
X67137238Y-59695000D01*
X66994380Y-59647380D01*
X66899142Y-59647380D01*
X66756285Y-59695000D01*
X66708666Y-59742619D01*
X66232476Y-60647380D02*
X66042000Y-60647380D01*
X65946761Y-60599761D01*
X65899142Y-60552142D01*
X65803904Y-60409285D01*
X65756285Y-60218809D01*
X65756285Y-59837857D01*
X65803904Y-59742619D01*
X65851523Y-59695000D01*
X65946761Y-59647380D01*
X66137238Y-59647380D01*
X66232476Y-59695000D01*
X66280095Y-59742619D01*
X66327714Y-59837857D01*
X66327714Y-60075952D01*
X66280095Y-60171190D01*
X66232476Y-60218809D01*
X66137238Y-60266428D01*
X65946761Y-60266428D01*
X65851523Y-60218809D01*
X65803904Y-60171190D01*
X65756285Y-60075952D01*
X73049666Y-76554142D02*
X73097285Y-76601761D01*
X73240142Y-76649380D01*
X73335380Y-76649380D01*
X73478238Y-76601761D01*
X73573476Y-76506523D01*
X73621095Y-76411285D01*
X73668714Y-76220809D01*
X73668714Y-76077952D01*
X73621095Y-75887476D01*
X73573476Y-75792238D01*
X73478238Y-75697000D01*
X73335380Y-75649380D01*
X73240142Y-75649380D01*
X73097285Y-75697000D01*
X73049666Y-75744619D01*
X72192523Y-75982714D02*
X72192523Y-76649380D01*
X72430619Y-75601761D02*
X72668714Y-76316047D01*
X72049666Y-76316047D01*
X79257142Y-91733333D02*
X79304761Y-91685714D01*
X79352380Y-91542857D01*
X79352380Y-91447619D01*
X79304761Y-91304761D01*
X79209523Y-91209523D01*
X79114285Y-91161904D01*
X78923809Y-91114285D01*
X78780952Y-91114285D01*
X78590476Y-91161904D01*
X78495238Y-91209523D01*
X78400000Y-91304761D01*
X78352380Y-91447619D01*
X78352380Y-91542857D01*
X78400000Y-91685714D01*
X78447619Y-91733333D01*
X78352380Y-92066666D02*
X78352380Y-92685714D01*
X78733333Y-92352380D01*
X78733333Y-92495238D01*
X78780952Y-92590476D01*
X78828571Y-92638095D01*
X78923809Y-92685714D01*
X79161904Y-92685714D01*
X79257142Y-92638095D01*
X79304761Y-92590476D01*
X79352380Y-92495238D01*
X79352380Y-92209523D01*
X79304761Y-92114285D01*
X79257142Y-92066666D01*
X87657142Y-78433333D02*
X87704761Y-78385714D01*
X87752380Y-78242857D01*
X87752380Y-78147619D01*
X87704761Y-78004761D01*
X87609523Y-77909523D01*
X87514285Y-77861904D01*
X87323809Y-77814285D01*
X87180952Y-77814285D01*
X86990476Y-77861904D01*
X86895238Y-77909523D01*
X86800000Y-78004761D01*
X86752380Y-78147619D01*
X86752380Y-78242857D01*
X86800000Y-78385714D01*
X86847619Y-78433333D01*
X86847619Y-78814285D02*
X86800000Y-78861904D01*
X86752380Y-78957142D01*
X86752380Y-79195238D01*
X86800000Y-79290476D01*
X86847619Y-79338095D01*
X86942857Y-79385714D01*
X87038095Y-79385714D01*
X87180952Y-79338095D01*
X87752380Y-78766666D01*
X87752380Y-79385714D01*
M02*
