M48
; DRILL file {KiCad (5.1.5)-3} date 10/01/2021 18:58:59
; FORMAT={-:-/ absolute / inch / decimal}
; #@! TF.CreationDate,2021-01-10T18:58:59+00:00
; #@! TF.GenerationSoftware,Kicad,Pcbnew,(5.1.5)-3
FMAT,2
INCH
T1C0.0157
T2C0.0295
T3C0.0315
T4C0.0394
T5C0.0472
T6C0.0630
T7C0.1378
T8C0.1260
%
G90
G05
T1
X2.311Y-2.9803
X2.3268Y-2.8622
X2.3425Y-3.2441
X2.3898Y-2.9252
X2.3976Y-3.1102
X2.4851Y-3.2787
X2.5433Y-3.0039
X2.5866Y-2.563
X2.6554Y-2.5648
X2.7362Y-3.437
X2.748Y-3.3031
X2.7646Y-3.1448
X2.7717Y-2.7087
X2.7717Y-2.8543
X2.8071Y-3.4724
X2.8858Y-3.3976
X2.9548Y-3.5364
X2.9698Y-3.0648
X2.9699Y-3.1275
X2.9942Y-2.8877
X3.0298Y-3.5364
X3.0866Y-3.096
X3.0906Y-3.2047
X3.1048Y-3.5364
X3.1181Y-2.8504
X3.1417Y-3.0354
X3.1417Y-3.0814
X3.1417Y-3.1273
X3.1417Y-3.1732
X3.1496Y-2.874
X3.1772Y-2.5276
X3.1798Y-3.5364
X3.185Y-2.8504
X3.185Y-3.0354
X3.185Y-3.0814
X3.185Y-3.1273
X3.185Y-3.1732
X3.185Y-3.5945
X3.2008Y-2.4409
X3.2126Y-3.3386
X3.2165Y-2.874
X3.2283Y-3.0354
X3.2283Y-3.0814
X3.2283Y-3.1273
X3.2283Y-3.1732
X3.2323Y-2.4213
X3.2441Y-2.6024
X3.248Y-2.654
X3.248Y-3.3386
X3.2717Y-3.0814
X3.2717Y-3.1273
X3.2717Y-3.1732
X3.2795Y-2.4764
X3.2835Y-2.4252
X3.3031Y-2.8583
X3.311Y-3.0157
X3.3298Y-3.5364
X3.3307Y-4.7047
X3.4048Y-3.5364
X3.4051Y-3.3315
X3.4198Y-3.159
X3.4331Y-2.4488
X3.4409Y-2.6024
X3.447Y-3.9351
X3.447Y-3.9851
X3.447Y-4.0351
X3.4523Y-4.5273
X3.4523Y-4.5648
X3.4523Y-4.6023
X3.4685Y-3.1575
X3.4685Y-3.4213
X3.4921Y-3.0827
X3.4956Y-4.5273
X3.4956Y-4.5648
X3.4956Y-4.6023
X3.5024Y-3.3878
X3.5079Y-2.7244
X3.5122Y-3.4268
X3.5389Y-4.5273
X3.5389Y-4.5648
X3.5389Y-4.6023
X3.5583Y-3.4898
X3.5822Y-4.5273
X3.5822Y-4.5648
X3.5822Y-4.6023
X3.5866Y-3.8071
X3.5906Y-3.5433
X3.5906Y-4.6535
X3.6Y-3.0984
X3.6Y-3.1378
X3.6023Y-4.8848
X3.6023Y-4.9198
X3.6227Y-3.8071
X3.6267Y-3.5433
X3.6299Y-4.1024
X3.6373Y-4.8848
X3.6373Y-4.9198
X3.6589Y-3.8071
X3.6628Y-3.5433
X3.6693Y-4.1811
X3.6723Y-4.8848
X3.6723Y-4.9198
X3.6773Y-3.8662
X3.695Y-3.8071
X3.6989Y-3.5433
X3.7073Y-4.8848
X3.7073Y-4.9198
X3.7311Y-3.8071
X3.7351Y-3.5433
X3.7423Y-4.8848
X3.7423Y-4.9198
X3.7673Y-3.8071
X3.7712Y-3.5433
X3.8034Y-3.8071
X3.8073Y-3.5433
X3.8286Y-4.591
X3.8286Y-4.6422
X3.8373Y-3.8662
X3.8395Y-3.8071
X3.8434Y-3.5433
X3.8634Y-4.1012
X3.8661Y-4.591
X3.8661Y-4.6422
X3.8661Y-4.5236
X3.8756Y-3.8071
X3.8796Y-3.5433
X3.9014Y-4.591
X3.9014Y-4.6422
X3.9098Y-4.1551
X3.9118Y-3.8071
X3.9157Y-3.5433
X3.9173Y-3.8662
X3.9273Y-4.1023
X3.9389Y-4.591
X3.9389Y-4.6422
X3.9479Y-3.8071
X3.9518Y-3.5433
X3.9648Y-4.0998
X3.9764Y-4.591
X3.9764Y-4.6422
X3.9803Y-4.2205
X3.9803Y-4.2795
X3.984Y-3.8071
X3.988Y-3.5433
X3.9898Y-4.0123
X4.0201Y-3.8071
X4.0241Y-3.5433
X4.0298Y-4.5039
X4.0472Y-4.2205
X4.0472Y-4.2795
X4.0548Y-4.0298
X4.0563Y-3.8071
X4.0573Y-4.0748
X4.0602Y-3.5433
X4.0848Y-4.5354
X4.0924Y-3.8071
X4.0963Y-3.5433
X4.1285Y-3.8071
X4.1299Y-4.1325
X4.1373Y-4.5591
X4.1614Y-4.176
X4.1614Y-4.3071
X4.1647Y-3.8071
X4.1811Y-3.9606
X4.2008Y-3.8071
X4.3575Y-3.3827
X4.3575Y-3.4221
X4.3575Y-3.4614
X4.3575Y-3.5205
X4.3575Y-3.5599
X4.3575Y-3.5992
X4.3595Y-4.9919
X4.3595Y-5.0312
X4.3595Y-5.0706
X4.3595Y-5.1297
X4.3595Y-5.169
X4.3595Y-5.2084
X4.3654Y-4.1799
X4.3654Y-4.2193
X4.3654Y-4.2587
X4.3654Y-4.3177
X4.3654Y-4.3571
X4.3654Y-4.3965
X4.3831Y-4.5303
X4.3839Y-3.1299
X4.3839Y-3.1713
X4.3898Y-5.4023
X4.4016Y-3.3071
X4.4016Y-3.3425
X4.4232Y-3.1299
X4.4232Y-3.1713
X4.4252Y-4.874
X4.4252Y-4.9094
X4.4252Y-4.9449
X4.437Y-3.3071
X4.437Y-3.3425
X4.4508Y-2.9587
X4.4606Y-4.874
X4.4606Y-4.9094
X4.4606Y-4.9449
X4.4626Y-3.1299
X4.4626Y-3.1713
X4.4724Y-3.3071
X4.4724Y-3.3425
X4.4998Y-3.9048
X4.5315Y-3.2402
X4.5858Y-2.7941
X4.6Y-2.65
X4.6004Y-2.7008
X4.6102Y-4.0787
X4.6102Y-4.1142
X4.6457Y-4.0787
X4.6457Y-4.1142
X4.6604Y-2.9596
X4.6811Y-4.0787
X4.6811Y-4.1142
X4.687Y-2.8917
X4.7748Y-4.9048
X4.7874Y-3.315
X4.8593Y-3.0307
X4.8819Y-3.2795
X4.8819Y-3.315
X4.8937Y-4.0984
X4.8937Y-4.1339
X4.8937Y-4.2638
X4.8937Y-4.2992
X4.8937Y-4.3346
X4.8937Y-4.3701
X4.8937Y-4.4055
X4.8937Y-4.4409
X4.8976Y-4.5906
X4.9023Y-5.3248
X4.9094Y-4.8819
X4.9094Y-4.9173
X4.9173Y-3.2795
X4.9173Y-3.315
X4.9291Y-4.0984
X4.9291Y-4.1339
X4.9291Y-4.4409
X4.9449Y-4.8819
X4.9449Y-4.9173
X4.9528Y-3.2795
X4.9528Y-3.315
X4.9646Y-4.0984
X4.9803Y-4.8819
X4.9803Y-4.9173
X5.0Y-4.0984
X5.0098Y-3.8523
X5.0236Y-3.9803
X5.0236Y-4.0157
X5.0354Y-4.0984
X5.0591Y-3.9803
X5.0591Y-4.0157
X5.0945Y-3.9803
X5.0945Y-4.0157
X5.2493Y-2.9807
X5.2798Y-4.0373
X5.2798Y-4.0723
X5.2798Y-4.1073
X5.2898Y-4.8348
X5.2898Y-4.8698
X5.2898Y-4.9048
X5.2948Y-3.2273
X5.2948Y-3.2623
X5.2948Y-3.2973
X5.4843Y-3.128
X5.4843Y-3.1693
X5.5236Y-3.128
X5.5236Y-3.1693
X5.563Y-3.128
X5.563Y-3.1693
T2
X5.6988Y-2.8075
X5.6988Y-2.8575
X5.6988Y-2.9075
T3
X2.929Y-3.6431
X2.929Y-3.7331
X2.929Y-3.8231
T4
X3.9531Y-2.93
X4.2224Y-2.6024
X3.9528Y-3.0709
X4.3642Y-2.6024
X4.3642Y-2.7441
X1.9898Y-2.3998
X1.9898Y-2.4998
X1.9898Y-2.5998
X1.9898Y-2.6998
X1.9898Y-2.7998
X1.9898Y-2.8998
X3.0748Y-3.7835
X3.1772Y-3.7835
X3.2795Y-3.7835
X1.9882Y-3.0866
X1.9882Y-3.1866
X3.811Y-2.93
X3.811Y-3.0709
X1.9898Y-2.3998
X2.0898Y-2.3998
X2.1898Y-2.3998
X2.2898Y-2.3998
X2.3898Y-2.3998
X4.2224Y-2.7441
T5
X4.248Y-2.4213
X4.348Y-2.4213
X4.448Y-2.4213
X4.548Y-2.4213
X4.648Y-2.4213
X4.748Y-2.4213
X4.848Y-2.4213
X4.948Y-2.4213
X5.048Y-2.4213
X5.148Y-2.4213
X5.248Y-2.4213
X5.348Y-2.4213
X5.448Y-2.4213
X5.548Y-2.4213
X5.648Y-2.4213
X5.748Y-2.4213
X5.6378Y-5.4598
X5.6378Y-5.6098
X5.6378Y-5.7598
X5.6378Y-5.9098
X5.6378Y-6.0598
T6
X1.9488Y-4.8614
X1.9488Y-4.9614
X1.9488Y-5.0614
X1.9488Y-5.1614
X2.0488Y-4.8614
X2.0488Y-4.9614
X2.0488Y-5.0614
X2.0488Y-5.1614
X2.1488Y-4.8614
X2.1488Y-4.9614
X2.1488Y-5.0614
X2.1488Y-5.1614
X2.2488Y-4.8614
X2.2488Y-4.8614
X2.2488Y-4.9614
X2.2488Y-5.0614
X2.2488Y-5.1614
X1.9496Y-3.4252
X1.9496Y-3.5252
X1.9496Y-3.6252
X1.9496Y-3.7252
X2.0496Y-3.4252
X2.0496Y-3.5252
X2.0496Y-3.6252
X2.0496Y-3.7252
X2.1496Y-3.4252
X2.1496Y-3.5252
X2.1496Y-3.6252
X2.1496Y-3.7252
X2.2496Y-3.4252
X2.2496Y-3.4252
X2.2496Y-3.5252
X2.2496Y-3.6252
X2.2496Y-3.7252
X5.453Y-4.9258
X5.453Y-5.0258
X5.453Y-5.1258
X5.453Y-5.2258
X5.453Y-5.2258
X5.553Y-4.9258
X5.553Y-5.0258
X5.553Y-5.1258
X5.553Y-5.2258
X5.653Y-4.9258
X5.653Y-5.0258
X5.653Y-5.1258
X5.653Y-5.2258
X5.753Y-4.9258
X5.753Y-5.0258
X5.753Y-5.1258
X5.753Y-5.2258
X5.4496Y-4.1432
X5.4496Y-4.2432
X5.4496Y-4.3432
X5.4496Y-4.4432
X5.4496Y-4.4432
X5.5496Y-4.1432
X5.5496Y-4.2432
X5.5496Y-4.3432
X5.5496Y-4.4432
X5.6496Y-4.1432
X5.6496Y-4.2432
X5.6496Y-4.3432
X5.6496Y-4.4432
X5.7496Y-4.1432
X5.7496Y-4.2432
X5.7496Y-4.3432
X5.7496Y-4.4432
X5.4503Y-3.3224
X5.4503Y-3.4224
X5.4503Y-3.5224
X5.4503Y-3.6224
X5.4503Y-3.6224
X5.5503Y-3.3224
X5.5503Y-3.4224
X5.5503Y-3.5224
X5.5503Y-3.6224
X5.6503Y-3.3224
X5.6503Y-3.4224
X5.6503Y-3.5224
X5.6503Y-3.6224
X5.7503Y-3.3224
X5.7503Y-3.4224
X5.7503Y-3.5224
X5.7503Y-3.6224
T7
X3.9527Y-0.9252
X8.4803Y-0.9252
T8
X2.2717Y-2.6417
X3.8346Y-2.6417
X2.0866Y-6.063
X5.2913Y-6.0315
T0
M30
